<svg xmlns="http://www.w3.org/2000/svg" viewBox="0 0 20 20">
  <defs>
    <style>
      .a {
        fill: #d3c566;
      }

      .b {
        fill: #fff;
      }
    </style>
  </defs>
  <title>premium</title>
  <g>
    <path class="a" d="M10,20A10,10,0,1,0,0,10,10,10,0,0,0,10,20"/>
    <path class="b" d="M12.86,7.34c.1-.28.42-.34.7-.34,1.09,0,1.59.8,1.58,2,0,1.82-1.12,5.07-3.93,5.07h-.48Zm-1.65,6.93c3.21,0,5.42-2.29,5.42-4.76,0-1.74-1.28-2.71-3.33-2.71H10.37L10.3,7h1.17L9.35,13.63c-.28.76-1.12,1.42-1.55,1.38s-.32-.52-.11-1.18h0c0-.11,1-3.34,1.08-3.5C9,9.27,8.25,8.8,7.4,8.83a2.55,2.55,0,0,0-1,.27L7.77,4.65H5.14l-.06.21H6.21L3.89,12.13H5c.25,0,.4-.05.5-.22s.24-.71.26-.79l.5-1.55a.71.71,0,0,1,.57-.34c.23,0,.83,0,.5,1,0,.08-1,3.16-1,3.29-.36,1.14,0,1.88,1.08,1.9a2.26,2.26,0,0,0,1.93-1.18Z"/>
  </g>
</svg>
