<svg id="Layer_1" height="512" viewBox="0 0 512 512" width="512" xmlns="http://www.w3.org/2000/svg" data-name="Layer 1"><path d="m176.93 444.42h165.98c15.59 0 31.48 15.89 31.48 35.49v10.51h-236.78v-10.51c0-19.56 15.82-35.42 39.32-35.49z" fill="#56768b"/><path d="m216.93 444.42h-40c-23.5.07-39.32 15.93-39.32 35.49v10.51h40v-10.51c0-19.56 15.82-35.42 39.32-35.49z" fill="#465f6d"/><path d="m191.62 110.85v23.53l-170.18 38.15v-99.83z" fill="#fad076"/><path d="m490.56 72.7v99.83l-170.18-38.15v-23.53z" fill="#fad076"/><path d="m21.44 72.7v20l170.18 38.15v-20z" fill="#e5b96a"/><path d="m320.38 110.85v20l170.18-38.15v-20z" fill="#e5b96a"/><path d="m307.47 65.81h-103.47a52.387 52.387 0 0 1 103.47 0z" fill="#eb565b"/><path d="m270.74 23.815a52.241 52.241 0 0 0 -66.74 42h30a52.631 52.631 0 0 1 36.74-42z" fill="#d8505b"/><path d="m322.58 267.42 12.49 177h-158.14l12.49-177z" fill="#eb565b"/><path d="m320.68 240.42 1.9 27h-133.16l1.9-27z" fill="#d9f3ff"/><path d="m316.92 187.27 3.76 53.15h-129.36l3.76-53.15z" fill="#eb565b"/><path d="m172.9 158.27v12.18a16.819 16.819 0 0 0 16.82 16.82h132.07a16.819 16.819 0 0 0 16.82-16.82v-12.18z" fill="#d9f3ff"/><path d="m314.04 65.81h-116.08a17.31 17.31 0 0 0 -17.31 17.31v5.82h150.7v-5.82a17.31 17.31 0 0 0 -17.31-17.31z" fill="#d9f3ff"/><path d="m189.42 267.42-12.49 177h30l12.49-177z" fill="#d8505b"/><path d="m191.32 240.42-1.9 27h30l1.9-27z" fill="#b1e1fc"/><path d="m195.08 187.27-3.76 53.15h30l3.76-53.15z" fill="#d8505b"/><path d="m202.9 170.45v-12.18h-30v12.18a16.819 16.819 0 0 0 16.82 16.82h30a16.819 16.819 0 0 1 -16.82-16.82z" fill="#b1e1fc"/><path d="m204 65.81h-6.04a17.31 17.31 0 0 0 -17.31 17.31v5.82h30v-5.82a17.31 17.31 0 0 1 17.31-17.31z" fill="#b1e1fc"/><path d="m301.62 88.94v.26 69.07h18.76v-69.07-.26z" fill="#fffce6"/><path d="m301.62 89.2v69.07h-36.24v-69.07-.26h36.24z" fill="#fad076"/><path d="m265.38 89.2v69.07h-18.76v-69.07-.26h18.76z" fill="#fffce6"/><path d="m246.62 89.2v69.07h-36.24v-69.07-.26h36.24z" fill="#fad076"/><path d="m191.62 88.94v.26 69.07h18.76v-69.07-.26z" fill="#fffce6"/><path d="m280.75 443.92v.5h-49.5v-29.35a24.75 24.75 0 0 1 49.5 0z" fill="#fffce6"/><g fill="#f4f8fc"><path d="m204.287 396.022c-.159 0-.319-.006-.479-.019a6 6 0 0 1 -5.509-6.454l5.384-68.131a6 6 0 0 1 11.963.946l-5.384 68.13a6 6 0 0 1 -5.975 5.528z"/><path d="m211.076 305.549c-.127 0-.254 0-.383-.012a6 6 0 0 1 -5.611-6.365l.353-5.6a6 6 0 1 1 11.976.754l-.352 5.6a6 6 0 0 1 -5.983 5.623z"/></g></svg>