<svg xmlns="http://www.w3.org/2000/svg" viewBox="0 0 200 200"><path d="M99.8 200c55.1 0 99.8-44.7 99.8-99.8C199.6 45.1 154.9.4 99.8.4S0 45.2 0 100.2C0 155.3 44.7 200 99.8 200" fill="#D5121E"/><path d="M129.3 72.8c1-2.9 4.3-3.6 7.2-3.5 11.2.5 16.4 8.2 16.4 20.6-.1 18.8-11.6 52.4-40.7 52.4h-5l22.1-69.5zm-17 71.6c33.2 0 56.1-23.7 56.1-49.2 0-17.9-13.3-28-34.4-28h-30.3l-.7 2.1h12.1l-21.8 68.4c-2.9 7.9-11.6 14.8-16 14.3-4.3-.4-3.4-5.4-1.2-12.3.3-1.1 10.8-34.5 11.2-36.1 2.4-10.9-5.4-15.8-14.2-15.5-3.4.1-7.6 1.1-10.8 2.7L76.7 45H49.6l-.7 2.1h11.7l-24 75.2h11c2.6 0 4.1-.5 5.2-2.4.5-1 2.5-7.2 2.7-8.1l5.1-16.1c.8-2.1 3.8-3.2 5.9-3.4 2.4-.3 8.6.3 5.2 10.7-.3.8-10.4 32.6-10.7 33.9-3.7 11.8-.3 19.5 11.1 19.7 9.1.2 14.9-5 20-12.2h20.2z" fill="#fff"/></svg>
