<svg id="Layer_1" xmlns="http://www.w3.org/2000/svg" xmlns:xlink="http://www.w3.org/1999/xlink" viewBox="0 0 25 25"><style>.st0,.st1{clip-path:url(#SVGID_2_);fill:#fff}.st1{fill:none;stroke:#fff}</style><defs><path id="SVGID_1_" d="M1.2 0h22.6v24.9H1.2z"/></defs><clipPath id="SVGID_2_"><use xlink:href="#SVGID_1_" overflow="visible"/></clipPath><path class="st0" d="M23 24.2c0-5.8-4.7-10.6-10.5-10.6S2 18.4 2 24.2h21z"/><path class="st1" d="M23 24.2c0-5.8-4.7-10.6-10.5-10.6S2 18.4 2 24.2h21z"/><path class="st0" d="M12.5 11.5c3 0 5.4-2.4 5.4-5.4 0-3-2.4-5.4-5.4-5.4S7.1 3.2 7.1 6.1c0 3 2.4 5.4 5.4 5.4"/><path class="st1" d="M12.5 11.5c3 0 5.4-2.4 5.4-5.4 0-3-2.4-5.4-5.4-5.4S7.1 3.2 7.1 6.1c0 3 2.4 5.4 5.4 5.4z"/></svg>